# xmcd
#
# Track frame offsets:
#	150
#	4371
#	22706
#	53087
#	73460
#	91160
#	95893
#	123596
#	139173
#	156871
#	170308
#	187860
#	204336
#	221660
#	237111
#
# Disc length: 3386 seconds
# Revision: 0
# Processed by: cddbd v1.5.2PL0 Copyright (c) Steve Scherf et al.
# Submitted via: dBpowerAMP V12.0
#
DISCID=cc0d380f
DTITLE=The Moody Blues - In Search of the Lost Chord: Hybrid SACD
DYEAR=1968
DGENRE=Pop
TTITLE0=Departure (Alternate Mix)
TTITLE1=The Best Way to Travel (Additional Vocal Mix)
TTITLE2=Legend of a Mind (Alternate Mix)
TTITLE3=Visions of Paradise (Instrumental Version)
TTITLE4=What Am I Doing Here? (Original Version)
TTITLE5=The Word (Mellotron Mix)
TTITLE6=Om (Extended Version)
TTITLE7=A Simple Game (Justin Hayward Vocal Mix)
TTITLE8=King and Queen (1968 Studio Recording)
TTITLE9=Doctor Livingstone, I Presume (Recorded for John Peel's BBC 'Top Gear' Radio Show, July 1968)
TTITLE10=Voices in the Sky (Recorded for John Peel's BBC 'Top Gear' Radio Show, July 1968)
TTITLE11=Thinking Is the Best Way to Travel (Recorded for John Peel's BBC 'Top Gear' Radio Show, July 1968)
TTITLE12=Ride My See-Saw (Recorded for John Peel's BBC 'Top Gear' Radio Show, July 1968)
TTITLE13=Tuesday Afternoon (Forever Afternoon) (Recorded for the BBC's 'The Afternoon Pop Show', October 1968)
TTITLE14=A Simple Game (1968 Single 'B' Side)
EXTD=
EXTT0=
EXTT1=
EXTT2=
EXTT3=
EXTT4=
EXTT5=
EXTT6=
EXTT7=
EXTT8=
EXTT9=
EXTT10=
EXTT11=
EXTT12=
EXTT13=
EXTT14=
PLAYORDER=
